<svg width="283" height="20" viewBox="0 0 283 20" fill="none" xmlns="http://www.w3.org/2000/svg">
<path d="M4 7.72727C4 6.95076 4.18939 6.2429 4.56818 5.60369C4.94697 4.96449 5.45597 4.45549 6.09517 4.0767C6.73438 3.69792 7.44223 3.50852 8.21875 3.50852C8.8911 3.50852 9.51136 3.65294 10.0795 3.94176C10.6525 4.23059 11.1259 4.62595 11.5 5.12784C11.8741 5.625 12.1061 6.18845 12.196 6.81818H10.4773C10.3826 6.33049 10.1198 5.93277 9.68892 5.625C9.25805 5.3125 8.76799 5.15625 8.21875 5.15625C7.74527 5.15625 7.31439 5.27225 6.92614 5.50426C6.53788 5.73627 6.22775 6.0464 5.99574 6.43466C5.76373 6.82292 5.64773 7.25379 5.64773 7.72727C5.64773 8.20076 5.76373 8.63163 5.99574 9.01989C6.22775 9.40814 6.53788 9.71828 6.92614 9.95028C7.31439 10.1823 7.74527 10.2983 8.21875 10.2983C8.76799 10.2983 9.23201 10.1444 9.6108 9.83665C9.99432 9.52415 10.2358 9.12405 10.3352 8.63636H12.054C11.964 9.2661 11.7438 9.83191 11.3935 10.3338C11.0431 10.831 10.5933 11.224 10.044 11.5128C9.49953 11.8016 8.8911 11.946 8.21875 11.946C7.44223 11.946 6.73438 11.7566 6.09517 11.3778C5.45597 10.9991 4.94697 10.4901 4.56818 9.85085C4.18939 9.21165 4 8.50379 4 7.72727ZM8.14773 15.2273C7.11553 15.2273 6.14489 15.0331 5.2358 14.6449C4.33144 14.2566 3.53362 13.7192 2.84233 13.0327C2.15578 12.3414 1.616 11.5436 1.22301 10.6392C0.834754 9.73485 0.642992 8.7642 0.647727 7.72727C0.652462 6.69034 0.848958 5.7197 1.23722 4.81534C1.63021 3.91098 2.16998 3.11553 2.85653 2.42898C3.54309 1.73769 4.33854 1.19792 5.2429 0.809659C6.14725 0.421401 7.11553 0.227273 8.14773 0.227273C9.18466 0.227273 10.1553 0.421401 11.0597 0.809659C11.9688 1.19792 12.7642 1.73769 13.446 2.42898C14.1326 3.11553 14.67 3.91098 15.0582 4.81534C15.4465 5.7197 15.643 6.69034 15.6477 7.72727C15.6525 8.7642 15.4607 9.73485 15.0724 10.6392C14.6842 11.5436 14.1468 12.3414 13.4602 13.0327C12.7737 13.7192 11.9759 14.2566 11.0668 14.6449C10.1577 15.0331 9.18466 15.2273 8.14773 15.2273ZM8.14773 13.5795C8.95739 13.5795 9.71733 13.428 10.4276 13.125C11.1378 12.822 11.7604 12.4029 12.2955 11.8679C12.8305 11.3329 13.2495 10.7126 13.5526 10.0071C13.8556 9.29687 14.0047 8.5393 14 7.73438C13.9953 6.92472 13.8414 6.16477 13.5384 5.45455C13.2353 4.74432 12.8163 4.12169 12.2812 3.58665C11.7462 3.05161 11.1259 2.63258 10.4205 2.32955C9.71496 2.02652 8.95739 1.875 8.14773 1.875C7.3428 1.875 6.58759 2.02652 5.8821 2.32955C5.17661 2.63258 4.55634 3.05398 4.02131 3.59375C3.48627 4.12879 3.06487 4.75142 2.7571 5.46165C2.45407 6.16714 2.30019 6.92472 2.29545 7.73438C2.29072 8.53456 2.43987 9.28977 2.7429 10C3.04593 10.7055 3.46496 11.3258 4 11.8608C4.53977 12.3958 5.16241 12.8172 5.8679 13.125C6.57813 13.428 7.33807 13.5795 8.14773 13.5795ZM36.3917 5H34.6303C34.5262 4.49337 34.3439 4.0483 34.0835 3.66477C33.8278 3.28125 33.5153 2.95928 33.146 2.69886C32.7814 2.43371 32.3765 2.23485 31.9315 2.10227C31.4864 1.9697 31.0224 1.90341 30.5394 1.90341C29.6587 1.90341 28.8609 2.12595 28.146 2.57102C27.4357 3.0161 26.8699 3.67188 26.4485 4.53835C26.0318 5.40483 25.8235 6.4678 25.8235 7.72727C25.8235 8.98674 26.0318 10.0497 26.4485 10.9162C26.8699 11.7827 27.4357 12.4384 28.146 12.8835C28.8609 13.3286 29.6587 13.5511 30.5394 13.5511C31.0224 13.5511 31.4864 13.4848 31.9315 13.3523C32.3765 13.2197 32.7814 13.0232 33.146 12.7628C33.5153 12.4976 33.8278 12.1733 34.0835 11.7898C34.3439 11.4015 34.5262 10.9564 34.6303 10.4545H36.3917C36.2591 11.1979 36.0176 11.8632 35.6673 12.4503C35.3169 13.0374 34.8813 13.5369 34.3604 13.9489C33.8396 14.3561 33.2549 14.6662 32.6062 14.8793C31.9622 15.0923 31.2733 15.1989 30.5394 15.1989C29.2989 15.1989 28.1957 14.8958 27.2298 14.2898C26.2638 13.6837 25.5039 12.822 24.9499 11.7045C24.396 10.5871 24.119 9.26136 24.119 7.72727C24.119 6.19318 24.396 4.86742 24.9499 3.75C25.5039 2.63258 26.2638 1.77083 27.2298 1.16477C28.1957 0.558712 29.2989 0.255681 30.5394 0.255681C31.2733 0.255681 31.9622 0.362215 32.6062 0.575284C33.2549 0.788352 33.8396 1.10085 34.3604 1.51278C34.8813 1.91998 35.3169 2.41714 35.6673 3.00426C36.0176 3.58665 36.2591 4.25189 36.3917 5ZM43.4425 15.2273C42.4576 15.2273 41.5935 14.9929 40.8501 14.5241C40.1115 14.0554 39.5339 13.3996 39.1172 12.5568C38.7053 11.714 38.4993 10.7292 38.4993 9.60227C38.4993 8.46591 38.7053 7.47396 39.1172 6.62642C39.5339 5.77888 40.1115 5.12074 40.8501 4.65199C41.5935 4.18324 42.4576 3.94886 43.4425 3.94886C44.4273 3.94886 45.2891 4.18324 46.0277 4.65199C46.7711 5.12074 47.3487 5.77888 47.7607 6.62642C48.1773 7.47396 48.3857 8.46591 48.3857 9.60227C48.3857 10.7292 48.1773 11.714 47.7607 12.5568C47.3487 13.3996 46.7711 14.0554 46.0277 14.5241C45.2891 14.9929 44.4273 15.2273 43.4425 15.2273ZM43.4425 13.7216C44.1906 13.7216 44.8061 13.5298 45.2891 13.1463C45.772 12.7628 46.1295 12.2585 46.3615 11.6335C46.5935 11.0085 46.7095 10.3314 46.7095 9.60227C46.7095 8.87311 46.5935 8.19366 46.3615 7.56392C46.1295 6.93419 45.772 6.42519 45.2891 6.03693C44.8061 5.64867 44.1906 5.45455 43.4425 5.45455C42.6944 5.45455 42.0788 5.64867 41.5959 6.03693C41.1129 6.42519 40.7554 6.93419 40.5234 7.56392C40.2914 8.19366 40.1754 8.87311 40.1754 9.60227C40.1754 10.3314 40.2914 11.0085 40.5234 11.6335C40.7554 12.2585 41.1129 12.7628 41.5959 13.1463C42.0788 13.5298 42.6944 13.7216 43.4425 13.7216ZM50.9442 19.0909V4.09091H52.5636V5.82386H52.7624C52.8855 5.63447 53.056 5.39299 53.2738 5.09943C53.4963 4.80114 53.8136 4.53598 54.2255 4.30398C54.6422 4.06723 55.2056 3.94886 55.9158 3.94886C56.8344 3.94886 57.6441 4.1785 58.3448 4.63778C59.0456 5.09706 59.5924 5.74811 59.9854 6.59091C60.3784 7.43371 60.5749 8.42803 60.5749 9.57386C60.5749 10.7292 60.3784 11.7306 59.9854 12.5781C59.5924 13.4209 59.0479 14.0743 58.3519 14.5384C57.6559 14.9976 56.8533 15.2273 55.9442 15.2273C55.2435 15.2273 54.6824 15.1113 54.261 14.8793C53.8396 14.6425 53.5153 14.375 53.288 14.0767C53.0607 13.7737 52.8855 13.5227 52.7624 13.3239H52.6204V19.0909H50.9442ZM52.592 9.54545C52.592 10.3693 52.7127 11.0961 52.9542 11.7259C53.1957 12.3509 53.5484 12.8409 54.0124 13.196C54.4764 13.5464 55.0446 13.7216 55.717 13.7216C56.4177 13.7216 57.0025 13.5369 57.4712 13.1676C57.9447 12.7936 58.2998 12.2917 58.5366 11.6619C58.7781 11.0275 58.8988 10.322 58.8988 9.54545C58.8988 8.77841 58.7804 8.08712 58.5437 7.47159C58.3117 6.85133 57.9589 6.36127 57.4854 6.00142C57.0167 5.63684 56.4272 5.45455 55.717 5.45455C55.0352 5.45455 54.4622 5.62737 53.9982 5.97301C53.5342 6.31392 53.1838 6.79214 52.9471 7.40767C52.7103 8.01847 52.592 8.73106 52.592 9.54545ZM63.8207 19.0909C63.5366 19.0909 63.2833 19.0672 63.0607 19.0199C62.8382 18.9773 62.6843 18.9347 62.5991 18.892L63.0252 17.4148C63.4324 17.5189 63.7923 17.5568 64.1048 17.5284C64.4173 17.5 64.6942 17.3603 64.9357 17.1094C65.1819 16.8632 65.4068 16.4631 65.6104 15.9091L65.9229 15.0568L61.8888 4.09091H63.707L66.7184 12.7841H66.832L69.8434 4.09091H71.6616L67.0309 16.5909C66.8226 17.1544 66.5645 17.6207 66.2567 17.9901C65.949 18.3641 65.5915 18.6411 65.1843 18.821C64.7818 19.0009 64.3273 19.0909 63.8207 19.0909ZM73.8739 15V4.09091H75.4933V5.73864H75.6069C75.8058 5.19886 76.1656 4.76089 76.6864 4.42472C77.2073 4.08854 77.7944 3.92045 78.4478 3.92045C78.5709 3.92045 78.7248 3.92282 78.9094 3.92756C79.0941 3.93229 79.2338 3.93939 79.3285 3.94886V5.65341C79.2717 5.6392 79.1415 5.6179 78.9379 5.58949C78.739 5.55634 78.5283 5.53977 78.3058 5.53977C77.7755 5.53977 77.302 5.65104 76.8853 5.87358C76.4734 6.09138 76.1467 6.39441 75.9052 6.78267C75.6684 7.16619 75.5501 7.60417 75.5501 8.09659V15H73.8739ZM81.3153 15V4.09091H82.9915V15H81.3153ZM82.1676 2.27273C81.8409 2.27273 81.5592 2.16146 81.3224 1.93892C81.0904 1.71638 80.9744 1.44886 80.9744 1.13636C80.9744 0.823864 81.0904 0.556345 81.3224 0.333806C81.5592 0.111269 81.8409 0 82.1676 0C82.4943 0 82.7737 0.111269 83.0057 0.333806C83.2424 0.556345 83.3608 0.823864 83.3608 1.13636C83.3608 1.44886 83.2424 1.71638 83.0057 1.93892C82.7737 2.16146 82.4943 2.27273 82.1676 2.27273ZM90.4648 19.3182C89.6552 19.3182 88.9592 19.214 88.3768 19.0057C87.7944 18.8021 87.3091 18.5322 86.9208 18.196C86.5373 17.8646 86.2319 17.5095 86.0046 17.1307L87.3398 16.1932C87.4914 16.392 87.6831 16.6193 87.9151 16.875C88.1471 17.1354 88.4644 17.3603 88.8668 17.5497C89.274 17.7438 89.8067 17.8409 90.4648 17.8409C91.3455 17.8409 92.0723 17.6278 92.6452 17.2017C93.2182 16.7756 93.5046 16.108 93.5046 15.1989V12.983H93.3626C93.2395 13.1818 93.0643 13.428 92.837 13.7216C92.6145 14.0104 92.2925 14.2685 91.8711 14.4957C91.4544 14.7183 90.891 14.8295 90.1808 14.8295C89.3001 14.8295 88.5094 14.6212 87.8086 14.2045C87.1126 13.7879 86.561 13.1818 86.1538 12.3864C85.7513 11.5909 85.5501 10.625 85.5501 9.48864C85.5501 8.37121 85.7466 7.3982 86.1396 6.5696C86.5326 5.73627 87.0794 5.09233 87.7802 4.63778C88.4809 4.1785 89.2906 3.94886 90.2092 3.94886C90.9194 3.94886 91.4828 4.06723 91.8995 4.30398C92.3209 4.53598 92.6429 4.80114 92.8654 5.09943C93.0927 5.39299 93.2679 5.63447 93.391 5.82386H93.5614V4.09091H95.1808V15.3125C95.1808 16.25 94.9677 17.0123 94.5415 17.5994C94.1201 18.1913 93.552 18.6245 92.837 18.8991C92.1268 19.1785 91.3361 19.3182 90.4648 19.3182ZM90.408 13.3239C91.0804 13.3239 91.6486 13.17 92.1126 12.8622C92.5766 12.5545 92.9293 12.1117 93.1708 11.5341C93.4123 10.9564 93.533 10.2652 93.533 9.46023C93.533 8.67424 93.4147 7.98059 93.1779 7.37926C92.9412 6.77794 92.5908 6.30682 92.1268 5.96591C91.6628 5.625 91.0898 5.45455 90.408 5.45455C89.6978 5.45455 89.1059 5.63447 88.6325 5.99432C88.1637 6.35417 87.811 6.83712 87.5742 7.44318C87.3422 8.04924 87.2262 8.72159 87.2262 9.46023C87.2262 10.2178 87.3446 10.8878 87.5813 11.4702C87.8228 12.0478 88.1779 12.5024 88.6467 12.8338C89.1201 13.1605 89.7073 13.3239 90.408 13.3239ZM99.9251 8.4375V15H98.2489V0.454545H99.9251V5.79545H100.067C100.323 5.23201 100.706 4.78456 101.218 4.45312C101.734 4.11695 102.42 3.94886 103.277 3.94886C104.021 3.94886 104.672 4.09801 105.23 4.39631C105.789 4.68987 106.222 5.14205 106.53 5.75284C106.843 6.3589 106.999 7.13068 106.999 8.06818V15H105.323V8.18182C105.323 7.31534 105.098 6.64536 104.648 6.17188C104.203 5.69366 103.585 5.45455 102.794 5.45455C102.245 5.45455 101.753 5.57055 101.317 5.80256C100.886 6.03456 100.545 6.37311 100.294 6.81818C100.048 7.26326 99.9251 7.80303 99.9251 8.4375ZM114.81 4.09091V5.51136H109.156V4.09091H114.81ZM110.804 1.47727H112.48V11.875C112.48 12.3485 112.549 12.7036 112.686 12.9403C112.828 13.1723 113.008 13.3286 113.226 13.4091C113.448 13.4848 113.683 13.5227 113.929 13.5227C114.114 13.5227 114.265 13.5133 114.384 13.4943C114.502 13.4706 114.597 13.4517 114.668 13.4375L115.009 14.9432C114.895 14.9858 114.736 15.0284 114.533 15.071C114.329 15.1184 114.071 15.142 113.759 15.142C113.285 15.142 112.821 15.0402 112.366 14.8366C111.917 14.633 111.543 14.3229 111.244 13.9062C110.951 13.4896 110.804 12.964 110.804 12.3295V1.47727ZM122.928 15V13.7216L127.729 8.46591C128.292 7.85038 128.756 7.31534 129.121 6.8608C129.485 6.40152 129.755 5.97064 129.93 5.56818C130.11 5.16098 130.2 4.73485 130.2 4.28977C130.2 3.77841 130.077 3.3357 129.831 2.96165C129.589 2.58759 129.258 2.29877 128.837 2.09517C128.415 1.89157 127.942 1.78977 127.416 1.78977C126.857 1.78977 126.37 1.90578 125.953 2.13778C125.541 2.36506 125.222 2.68466 124.994 3.09659C124.772 3.50852 124.661 3.99148 124.661 4.54545H122.984C122.984 3.69318 123.181 2.94508 123.574 2.30114C123.967 1.6572 124.502 1.1553 125.179 0.795454C125.861 0.435605 126.625 0.255681 127.473 0.255681C128.325 0.255681 129.08 0.435605 129.739 0.795454C130.397 1.1553 130.913 1.64062 131.287 2.25142C131.661 2.86222 131.848 3.54167 131.848 4.28977C131.848 4.82481 131.751 5.34801 131.557 5.85938C131.367 6.366 131.036 6.93182 130.562 7.55682C130.094 8.17708 129.443 8.93466 128.609 9.82955L125.342 13.3239V13.4375H132.104V15H122.928ZM139.781 15.1989C138.711 15.1989 137.8 14.9077 137.047 14.3253C136.294 13.7382 135.719 12.8883 135.321 11.7756C134.923 10.6581 134.724 9.30871 134.724 7.72727C134.724 6.1553 134.923 4.81297 135.321 3.70028C135.723 2.58286 136.301 1.73059 137.054 1.14347C137.812 0.551609 138.721 0.255681 139.781 0.255681C140.842 0.255681 141.749 0.551609 142.501 1.14347C143.259 1.73059 143.837 2.58286 144.234 3.70028C144.637 4.81297 144.838 6.1553 144.838 7.72727C144.838 9.30871 144.639 10.6581 144.241 11.7756C143.844 12.8883 143.268 13.7382 142.516 14.3253C141.763 14.9077 140.851 15.1989 139.781 15.1989ZM139.781 13.6364C140.842 13.6364 141.666 13.125 142.253 12.1023C142.84 11.0795 143.134 9.62121 143.134 7.72727C143.134 6.4678 142.999 5.39536 142.729 4.50994C142.464 3.62453 142.08 2.94981 141.578 2.4858C141.081 2.02178 140.482 1.78977 139.781 1.78977C138.73 1.78977 137.909 2.30824 137.317 3.34517C136.725 4.37737 136.429 5.83807 136.429 7.72727C136.429 8.98674 136.562 10.0568 136.827 10.9375C137.092 11.8182 137.473 12.4882 137.97 12.9474C138.472 13.4067 139.076 13.6364 139.781 13.6364ZM147.537 15V13.7216L152.338 8.46591C152.902 7.85038 153.366 7.31534 153.73 6.8608C154.095 6.40152 154.365 5.97064 154.54 5.56818C154.72 5.16098 154.81 4.73485 154.81 4.28977C154.81 3.77841 154.687 3.3357 154.44 2.96165C154.199 2.58759 153.867 2.29877 153.446 2.09517C153.025 1.89157 152.551 1.78977 152.026 1.78977C151.467 1.78977 150.979 1.90578 150.562 2.13778C150.151 2.36506 149.831 2.68466 149.604 3.09659C149.381 3.50852 149.27 3.99148 149.27 4.54545H147.594C147.594 3.69318 147.79 2.94508 148.183 2.30114C148.576 1.6572 149.111 1.1553 149.788 0.795454C150.47 0.435605 151.235 0.255681 152.082 0.255681C152.935 0.255681 153.69 0.435605 154.348 0.795454C155.006 1.1553 155.522 1.64062 155.896 2.25142C156.27 2.86222 156.457 3.54167 156.457 4.28977C156.457 4.82481 156.36 5.34801 156.166 5.85938C155.977 6.366 155.645 6.93182 155.172 7.55682C154.703 8.17708 154.052 8.93466 153.219 9.82955L149.952 13.3239V13.4375H156.713V15H147.537ZM159.646 15V13.7216L164.447 8.46591C165.011 7.85038 165.475 7.31534 165.839 6.8608C166.204 6.40152 166.474 5.97064 166.649 5.56818C166.829 5.16098 166.919 4.73485 166.919 4.28977C166.919 3.77841 166.796 3.3357 166.55 2.96165C166.308 2.58759 165.977 2.29877 165.555 2.09517C165.134 1.89157 164.661 1.78977 164.135 1.78977C163.576 1.78977 163.089 1.90578 162.672 2.13778C162.26 2.36506 161.94 2.68466 161.713 3.09659C161.491 3.50852 161.379 3.99148 161.379 4.54545H159.703C159.703 3.69318 159.9 2.94508 160.293 2.30114C160.686 1.6572 161.221 1.1553 161.898 0.795454C162.58 0.435605 163.344 0.255681 164.192 0.255681C165.044 0.255681 165.799 0.435605 166.457 0.795454C167.116 1.1553 167.632 1.64062 168.006 2.25142C168.38 2.86222 168.567 3.54167 168.567 4.28977C168.567 4.82481 168.47 5.34801 168.276 5.85938C168.086 6.366 167.755 6.93182 167.281 7.55682C166.812 8.17708 166.161 8.93466 165.328 9.82955L162.061 13.3239V13.4375H168.822V15H159.646ZM189.17 0.454545V15H187.466L179.54 3.57955H179.398V15H177.636V0.454545H179.341L187.295 11.9034H187.438V0.454545H189.17ZM192.695 15V0.454545H201.417V2.01705H194.456V6.93182H200.763V8.49432H194.456V15H192.695ZM203.638 2.01705V0.454545H214.547V2.01705H209.973V15H208.212V2.01705H203.638ZM218.714 0.454545V15H217.038V0.454545H218.714ZM224.994 15.2557C224.303 15.2557 223.676 15.1255 223.112 14.8651C222.549 14.5999 222.101 14.2188 221.77 13.7216C221.438 13.2197 221.273 12.6136 221.273 11.9034C221.273 11.2784 221.396 10.7718 221.642 10.3835C221.888 9.99053 222.217 9.68276 222.629 9.46023C223.041 9.23769 223.496 9.07197 223.993 8.96307C224.495 8.84943 224.999 8.75947 225.506 8.69318C226.169 8.60795 226.706 8.54403 227.118 8.50142C227.535 8.45407 227.838 8.37595 228.027 8.26705C228.221 8.15814 228.318 7.96875 228.318 7.69886V7.64205C228.318 6.94129 228.126 6.39678 227.743 6.00852C227.364 5.62027 226.789 5.42614 226.017 5.42614C225.217 5.42614 224.589 5.60133 224.135 5.9517C223.68 6.30208 223.361 6.67614 223.176 7.07386L221.585 6.50568C221.869 5.8428 222.248 5.3267 222.722 4.95739C223.2 4.58333 223.721 4.32292 224.284 4.17614C224.852 4.02462 225.411 3.94886 225.96 3.94886C226.311 3.94886 226.713 3.99148 227.168 4.0767C227.627 4.1572 228.07 4.32528 228.496 4.58097C228.927 4.83665 229.284 5.22254 229.568 5.73864C229.852 6.25473 229.994 6.94602 229.994 7.8125V15H228.318V13.5227H228.233C228.119 13.7595 227.93 14.0128 227.665 14.2827C227.4 14.5526 227.047 14.7822 226.607 14.9716C226.166 15.161 225.629 15.2557 224.994 15.2557ZM225.25 13.75C225.913 13.75 226.472 13.6198 226.926 13.3594C227.385 13.099 227.731 12.7628 227.963 12.3509C228.2 11.9389 228.318 11.5057 228.318 11.0511V9.51705C228.247 9.60227 228.091 9.6804 227.849 9.75142C227.613 9.81771 227.338 9.87689 227.026 9.92898C226.718 9.97633 226.417 10.0189 226.124 10.0568C225.835 10.09 225.6 10.1184 225.42 10.142C224.985 10.1989 224.578 10.2912 224.199 10.419C223.825 10.5421 223.522 10.7292 223.29 10.9801C223.063 11.2263 222.949 11.5625 222.949 11.9886C222.949 12.571 223.164 13.0114 223.595 13.3097C224.031 13.6032 224.582 13.75 225.25 13.75ZM234.73 8.4375V15H233.054V4.09091H234.673V5.79545H234.815C235.071 5.24148 235.459 4.7964 235.98 4.46023C236.501 4.11932 237.173 3.94886 237.997 3.94886C238.735 3.94886 239.382 4.10038 239.936 4.40341C240.49 4.7017 240.921 5.15625 241.228 5.76705C241.536 6.37311 241.69 7.14015 241.69 8.06818V15H240.014V8.18182C240.014 7.32481 239.791 6.6572 239.346 6.17898C238.901 5.69602 238.29 5.45455 237.514 5.45455C236.979 5.45455 236.501 5.57055 236.079 5.80256C235.663 6.03456 235.333 6.37311 235.092 6.81818C234.85 7.26326 234.73 7.80303 234.73 8.4375ZM248.872 15.2273C247.963 15.2273 247.161 14.9976 246.464 14.5384C245.768 14.0743 245.224 13.4209 244.831 12.5781C244.438 11.7306 244.241 10.7292 244.241 9.57386C244.241 8.42803 244.438 7.43371 244.831 6.59091C245.224 5.74811 245.771 5.09706 246.472 4.63778C247.172 4.1785 247.982 3.94886 248.901 3.94886C249.611 3.94886 250.172 4.06723 250.584 4.30398C251 4.53598 251.318 4.80114 251.536 5.09943C251.758 5.39299 251.931 5.63447 252.054 5.82386H252.196V0.454545H253.872V15H252.253V13.3239H252.054C251.931 13.5227 251.756 13.7737 251.528 14.0767C251.301 14.375 250.977 14.6425 250.555 14.8793C250.134 15.1113 249.573 15.2273 248.872 15.2273ZM249.099 13.7216C249.772 13.7216 250.34 13.5464 250.804 13.196C251.268 12.8409 251.621 12.3509 251.862 11.7259C252.104 11.0961 252.224 10.3693 252.224 9.54545C252.224 8.73106 252.106 8.01847 251.869 7.40767C251.633 6.79214 251.282 6.31392 250.818 5.97301C250.354 5.62737 249.781 5.45455 249.099 5.45455C248.389 5.45455 247.797 5.63684 247.324 6.00142C246.855 6.36127 246.502 6.85133 246.266 7.47159C246.034 8.08712 245.918 8.77841 245.918 9.54545C245.918 10.322 246.036 11.0275 246.273 11.6619C246.514 12.2917 246.869 12.7936 247.338 13.1676C247.812 13.5369 248.399 13.7216 249.099 13.7216ZM257.175 15V4.09091H258.851V15H257.175ZM258.027 2.27273C257.7 2.27273 257.419 2.16146 257.182 1.93892C256.95 1.71638 256.834 1.44886 256.834 1.13636C256.834 0.823864 256.95 0.556345 257.182 0.333806C257.419 0.111269 257.7 0 258.027 0C258.354 0 258.633 0.111269 258.865 0.333806C259.102 0.556345 259.22 0.823864 259.22 1.13636C259.22 1.44886 259.102 1.71638 258.865 1.93892C258.633 2.16146 258.354 2.27273 258.027 2.27273ZM263.597 8.4375V15H261.921V4.09091H263.54V5.79545H263.682C263.938 5.24148 264.326 4.7964 264.847 4.46023C265.368 4.11932 266.04 3.94886 266.864 3.94886C267.603 3.94886 268.249 4.10038 268.803 4.40341C269.357 4.7017 269.788 5.15625 270.096 5.76705C270.403 6.37311 270.557 7.14015 270.557 8.06818V15H268.881V8.18182C268.881 7.32481 268.658 6.6572 268.213 6.17898C267.768 5.69602 267.158 5.45455 266.381 5.45455C265.846 5.45455 265.368 5.57055 264.946 5.80256C264.53 6.03456 264.201 6.37311 263.959 6.81818C263.718 7.26326 263.597 7.80303 263.597 8.4375ZM278.023 19.3182C277.214 19.3182 276.518 19.214 275.935 19.0057C275.353 18.8021 274.868 18.5322 274.479 18.196C274.096 17.8646 273.79 17.5095 273.563 17.1307L274.898 16.1932C275.05 16.392 275.242 16.6193 275.474 16.875C275.706 17.1354 276.023 17.3603 276.425 17.5497C276.833 17.7438 277.365 17.8409 278.023 17.8409C278.904 17.8409 279.631 17.6278 280.204 17.2017C280.777 16.7756 281.063 16.108 281.063 15.1989V12.983H280.921C280.798 13.1818 280.623 13.428 280.396 13.7216C280.173 14.0104 279.851 14.2685 279.43 14.4957C279.013 14.7183 278.45 14.8295 277.739 14.8295C276.859 14.8295 276.068 14.6212 275.367 14.2045C274.671 13.7879 274.12 13.1818 273.712 12.3864C273.31 11.5909 273.109 10.625 273.109 9.48864C273.109 8.37121 273.305 7.3982 273.698 6.5696C274.091 5.73627 274.638 5.09233 275.339 4.63778C276.04 4.1785 276.849 3.94886 277.768 3.94886C278.478 3.94886 279.041 4.06723 279.458 4.30398C279.879 4.53598 280.201 4.80114 280.424 5.09943C280.651 5.39299 280.826 5.63447 280.95 5.82386H281.12V4.09091H282.739V15.3125C282.739 16.25 282.526 17.0123 282.1 17.5994C281.679 18.1913 281.111 18.6245 280.396 18.8991C279.685 19.1785 278.895 19.3182 278.023 19.3182ZM277.967 13.3239C278.639 13.3239 279.207 13.17 279.671 12.8622C280.135 12.5545 280.488 12.1117 280.729 11.5341C280.971 10.9564 281.092 10.2652 281.092 9.46023C281.092 8.67424 280.973 7.98059 280.737 7.37926C280.5 6.77794 280.149 6.30682 279.685 5.96591C279.221 5.625 278.648 5.45455 277.967 5.45455C277.256 5.45455 276.665 5.63447 276.191 5.99432C275.722 6.35417 275.37 6.83712 275.133 7.44318C274.901 8.04924 274.785 8.72159 274.785 9.46023C274.785 10.2178 274.903 10.8878 275.14 11.4702C275.381 12.0478 275.737 12.5024 276.205 12.8338C276.679 13.1605 277.266 13.3239 277.967 13.3239Z" fill="#999999"/>
</svg>
