<svg width="222" height="20" viewBox="0 0 222 20" fill="none" xmlns="http://www.w3.org/2000/svg">
<path d="M0.562145 15V0.454545H2.32351V13.4375H9.08487V15H0.562145ZM14.7951 15.2557C14.1038 15.2557 13.4764 15.1255 12.913 14.8651C12.3496 14.5999 11.9021 14.2188 11.5707 13.7216C11.2392 13.2197 11.0735 12.6136 11.0735 11.9034C11.0735 11.2784 11.1966 10.7718 11.4428 10.3835C11.689 9.99053 12.0181 9.68276 12.43 9.46023C12.842 9.23769 13.2965 9.07197 13.7937 8.96307C14.2956 8.84943 14.7998 8.75947 15.3065 8.69318C15.9693 8.60795 16.5067 8.54403 16.9187 8.50142C17.3353 8.45407 17.6384 8.37595 17.8278 8.26705C18.0219 8.15814 18.119 7.96875 18.119 7.69886V7.64205C18.119 6.94129 17.9272 6.39678 17.5437 6.00852C17.1649 5.62027 16.5896 5.42614 15.8178 5.42614C15.0176 5.42614 14.3903 5.60133 13.9357 5.9517C13.4812 6.30208 13.1616 6.67614 12.9769 7.07386L11.386 6.50568C11.6701 5.8428 12.0489 5.3267 12.5224 4.95739C13.0006 4.58333 13.5214 4.32292 14.0849 4.17614C14.6531 4.02462 15.2118 3.94886 15.761 3.94886C16.1114 3.94886 16.5138 3.99148 16.9684 4.0767C17.4277 4.1572 17.8704 4.32528 18.2965 4.58097C18.7274 4.83665 19.0849 5.22254 19.369 5.73864C19.6531 6.25473 19.7951 6.94602 19.7951 7.8125V15H18.119V13.5227H18.0337C17.9201 13.7595 17.7307 14.0128 17.4656 14.2827C17.2004 14.5526 16.8477 14.7822 16.4073 14.9716C15.967 15.161 15.4296 15.2557 14.7951 15.2557ZM15.0508 13.75C15.7137 13.75 16.2724 13.6198 16.7269 13.3594C17.1862 13.099 17.5318 12.7628 17.7638 12.3509C18.0006 11.9389 18.119 11.5057 18.119 11.0511V9.51705C18.0479 9.60227 17.8917 9.6804 17.6502 9.75142C17.4135 9.81771 17.1388 9.87689 16.8263 9.92898C16.5186 9.97633 16.2179 10.0189 15.9244 10.0568C15.6355 10.09 15.4012 10.1184 15.2212 10.142C14.7856 10.1989 14.3784 10.2912 13.9996 10.419C13.6256 10.5421 13.3226 10.7292 13.0906 10.9801C12.8633 11.2263 12.7496 11.5625 12.7496 11.9886C12.7496 12.571 12.9651 13.0114 13.396 13.3097C13.8316 13.6032 14.3832 13.75 15.0508 13.75ZM29.7294 10.5398V4.09091H31.4055V15H29.7294V13.1534H29.6158C29.3601 13.7074 28.9624 14.1785 28.4226 14.5668C27.8828 14.9503 27.201 15.142 26.3771 15.142C25.6953 15.142 25.0893 14.9929 24.5589 14.6946C24.0286 14.3916 23.612 13.937 23.3089 13.331C23.0059 12.7202 22.8544 11.9508 22.8544 11.0227V4.09091H24.5305V10.9091C24.5305 11.7045 24.7531 12.339 25.1982 12.8125C25.648 13.286 26.2209 13.5227 26.9169 13.5227C27.3336 13.5227 27.7573 13.4162 28.1882 13.2031C28.6238 12.9901 28.9884 12.6634 29.282 12.223C29.5803 11.7827 29.7294 11.2216 29.7294 10.5398ZM36.1516 8.4375V15H34.4755V4.09091H36.0948V5.79545H36.2369C36.4925 5.24148 36.8808 4.7964 37.4016 4.46023C37.9225 4.11932 38.5948 3.94886 39.4187 3.94886C40.1573 3.94886 40.8036 4.10038 41.3576 4.40341C41.9116 4.7017 42.3424 5.15625 42.6502 5.76705C42.958 6.37311 43.1119 7.14015 43.1119 8.06818V15H41.4357V8.18182C41.4357 7.32481 41.2132 6.6572 40.7681 6.17898C40.323 5.69602 39.7122 5.45455 38.9357 5.45455C38.4007 5.45455 37.9225 5.57055 37.5011 5.80256C37.0844 6.03456 36.7553 6.37311 36.5138 6.81818C36.2724 7.26326 36.1516 7.80303 36.1516 8.4375ZM50.6065 15.2273C49.5838 15.2273 48.7031 14.9858 47.9645 14.5028C47.2259 14.0199 46.6577 13.3546 46.2599 12.5071C45.8622 11.6596 45.6634 10.6913 45.6634 9.60227C45.6634 8.49432 45.867 7.51657 46.2741 6.66903C46.6861 5.81676 47.259 5.15152 47.9929 4.6733C48.7315 4.19034 49.5933 3.94886 50.5781 3.94886C51.3452 3.94886 52.0365 4.09091 52.652 4.375C53.2675 4.65909 53.7718 5.05682 54.1648 5.56818C54.5578 6.07955 54.8016 6.67614 54.8963 7.35795H53.2202C53.0923 6.8608 52.8082 6.42045 52.3679 6.03693C51.9323 5.64867 51.3452 5.45455 50.6065 5.45455C49.9531 5.45455 49.3802 5.625 48.8878 5.96591C48.4001 6.30208 48.0189 6.77794 47.7443 7.39347C47.4744 8.00426 47.3395 8.72159 47.3395 9.54545C47.3395 10.3883 47.4721 11.1222 47.7372 11.7472C48.0071 12.3722 48.3859 12.8575 48.8736 13.2031C49.366 13.5488 49.9437 13.7216 50.6065 13.7216C51.0421 13.7216 51.4375 13.6458 51.7926 13.4943C52.1477 13.3428 52.4484 13.125 52.6946 12.8409C52.9408 12.5568 53.116 12.2159 53.2202 11.8182H54.8963C54.8016 12.4621 54.5672 13.0421 54.1932 13.5582C53.8239 14.0696 53.3338 14.4768 52.723 14.7798C52.117 15.0781 51.4115 15.2273 50.6065 15.2273ZM59.0227 8.4375V15H57.3466V0.454545H59.0227V5.79545H59.1648C59.4205 5.23201 59.804 4.78456 60.3153 4.45312C60.8314 4.11695 61.518 3.94886 62.375 3.94886C63.1184 3.94886 63.7694 4.09801 64.3281 4.39631C64.8868 4.68987 65.3201 5.14205 65.6278 5.75284C65.9403 6.3589 66.0966 7.13068 66.0966 8.06818V15H64.4205V8.18182C64.4205 7.31534 64.1955 6.64536 63.7457 6.17188C63.3007 5.69366 62.6828 5.45455 61.892 5.45455C61.3428 5.45455 60.8504 5.57055 60.4148 5.80256C59.9839 6.03456 59.643 6.37311 59.392 6.81818C59.1458 7.26326 59.0227 7.80303 59.0227 8.4375ZM69.163 15V4.09091H70.8391V15H69.163ZM70.0153 2.27273C69.6886 2.27273 69.4068 2.16146 69.1701 1.93892C68.9381 1.71638 68.8221 1.44886 68.8221 1.13636C68.8221 0.823864 68.9381 0.556345 69.1701 0.333806C69.4068 0.111269 69.6886 0 70.0153 0C70.342 0 70.6213 0.111269 70.8533 0.333806C71.0901 0.556345 71.2085 0.823864 71.2085 1.13636C71.2085 1.44886 71.0901 1.71638 70.8533 1.93892C70.6213 2.16146 70.342 2.27273 70.0153 2.27273ZM75.5852 8.4375V15H73.9091V4.09091H75.5284V5.79545H75.6705C75.9261 5.24148 76.3144 4.7964 76.8352 4.46023C77.3561 4.11932 78.0284 3.94886 78.8523 3.94886C79.5909 3.94886 80.2372 4.10038 80.7912 4.40341C81.3452 4.7017 81.776 5.15625 82.0838 5.76705C82.3916 6.37311 82.5455 7.14015 82.5455 8.06818V15H80.8693V8.18182C80.8693 7.32481 80.6468 6.6572 80.2017 6.17898C79.7566 5.69602 79.1458 5.45455 78.3693 5.45455C77.8343 5.45455 77.3561 5.57055 76.9347 5.80256C76.518 6.03456 76.1889 6.37311 75.9474 6.81818C75.706 7.26326 75.5852 7.80303 75.5852 8.4375ZM90.0117 19.3182C89.2021 19.3182 88.506 19.214 87.9237 19.0057C87.3413 18.8021 86.8559 18.5322 86.4677 18.196C86.0842 17.8646 85.7788 17.5095 85.5515 17.1307L86.8867 16.1932C87.0382 16.392 87.23 16.6193 87.462 16.875C87.694 17.1354 88.0112 17.3603 88.4137 17.5497C88.8209 17.7438 89.3536 17.8409 90.0117 17.8409C90.8924 17.8409 91.6192 17.6278 92.1921 17.2017C92.765 16.7756 93.0515 16.108 93.0515 15.1989V12.983H92.9094C92.7863 13.1818 92.6112 13.428 92.3839 13.7216C92.1613 14.0104 91.8394 14.2685 91.418 14.4957C91.0013 14.7183 90.4379 14.8295 89.7276 14.8295C88.8469 14.8295 88.0562 14.6212 87.3555 14.2045C86.6594 13.7879 86.1078 13.1818 85.7006 12.3864C85.2982 11.5909 85.0969 10.625 85.0969 9.48864C85.0969 8.37121 85.2934 7.3982 85.6864 6.5696C86.0794 5.73627 86.6263 5.09233 87.3271 4.63778C88.0278 4.1785 88.8375 3.94886 89.756 3.94886C90.4663 3.94886 91.0297 4.06723 91.4464 4.30398C91.8678 4.53598 92.1897 4.80114 92.4123 5.09943C92.6396 5.39299 92.8147 5.63447 92.9379 5.82386H93.1083V4.09091H94.7276V15.3125C94.7276 16.25 94.5146 17.0123 94.0884 17.5994C93.667 18.1913 93.0988 18.6245 92.3839 18.8991C91.6737 19.1785 90.8829 19.3182 90.0117 19.3182ZM89.9549 13.3239C90.6272 13.3239 91.1954 13.17 91.6594 12.8622C92.1235 12.5545 92.4762 12.1117 92.7177 11.5341C92.9592 10.9564 93.0799 10.2652 93.0799 9.46023C93.0799 8.67424 92.9615 7.98059 92.7248 7.37926C92.488 6.77794 92.1377 6.30682 91.6737 5.96591C91.2096 5.625 90.6367 5.45455 89.9549 5.45455C89.2447 5.45455 88.6528 5.63447 88.1793 5.99432C87.7106 6.35417 87.3578 6.83712 87.1211 7.44318C86.8891 8.04924 86.7731 8.72159 86.7731 9.46023C86.7731 10.2178 86.8915 10.8878 87.1282 11.4702C87.3697 12.0478 87.7248 12.5024 88.1935 12.8338C88.667 13.1605 89.2541 13.3239 89.9549 13.3239ZM104.245 15H102.398L107.739 0.454545H109.557L114.898 15H113.051L108.705 2.75568H108.591L104.245 15ZM104.926 9.31818H112.37V10.8807H104.926V9.31818ZM123.811 10.5398V4.09091H125.488V15H123.811V13.1534H123.698C123.442 13.7074 123.044 14.1785 122.505 14.5668C121.965 14.9503 121.283 15.142 120.459 15.142C119.777 15.142 119.171 14.9929 118.641 14.6946C118.111 14.3916 117.694 13.937 117.391 13.331C117.088 12.7202 116.936 11.9508 116.936 11.0227V4.09091H118.613V10.9091C118.613 11.7045 118.835 12.339 119.28 12.8125C119.73 13.286 120.303 13.5227 120.999 13.5227C121.416 13.5227 121.839 13.4162 122.27 13.2031C122.706 12.9901 123.07 12.6634 123.364 12.223C123.662 11.7827 123.811 11.2216 123.811 10.5398ZM132.961 19.3182C132.151 19.3182 131.455 19.214 130.873 19.0057C130.29 18.8021 129.805 18.5322 129.417 18.196C129.033 17.8646 128.728 17.5095 128.501 17.1307L129.836 16.1932C129.987 16.392 130.179 16.6193 130.411 16.875C130.643 17.1354 130.96 17.3603 131.363 17.5497C131.77 17.7438 132.303 17.8409 132.961 17.8409C133.842 17.8409 134.568 17.6278 135.141 17.2017C135.714 16.7756 136.001 16.108 136.001 15.1989V12.983H135.859C135.736 13.1818 135.56 13.428 135.333 13.7216C135.111 14.0104 134.789 14.2685 134.367 14.4957C133.951 14.7183 133.387 14.8295 132.677 14.8295C131.796 14.8295 131.005 14.6212 130.305 14.2045C129.609 13.7879 129.057 13.1818 128.65 12.3864C128.247 11.5909 128.046 10.625 128.046 9.48864C128.046 8.37121 128.243 7.3982 128.636 6.5696C129.029 5.73627 129.576 5.09233 130.276 4.63778C130.977 4.1785 131.787 3.94886 132.705 3.94886C133.415 3.94886 133.979 4.06723 134.396 4.30398C134.817 4.53598 135.139 4.80114 135.362 5.09943C135.589 5.39299 135.764 5.63447 135.887 5.82386H136.058V4.09091H137.677V15.3125C137.677 16.25 137.464 17.0123 137.038 17.5994C136.616 18.1913 136.048 18.6245 135.333 18.8991C134.623 19.1785 133.832 19.3182 132.961 19.3182ZM132.904 13.3239C133.576 13.3239 134.145 13.17 134.609 12.8622C135.073 12.5545 135.425 12.1117 135.667 11.5341C135.908 10.9564 136.029 10.2652 136.029 9.46023C136.029 8.67424 135.911 7.98059 135.674 7.37926C135.437 6.77794 135.087 6.30682 134.623 5.96591C134.159 5.625 133.586 5.45455 132.904 5.45455C132.194 5.45455 131.602 5.63447 131.129 5.99432C130.66 6.35417 130.307 6.83712 130.07 7.44318C129.838 8.04924 129.722 8.72159 129.722 9.46023C129.722 10.2178 129.841 10.8878 130.077 11.4702C130.319 12.0478 130.674 12.5024 131.143 12.8338C131.616 13.1605 132.203 13.3239 132.904 13.3239ZM147.62 10.5398V4.09091H149.296V15H147.62V13.1534H147.506C147.251 13.7074 146.853 14.1785 146.313 14.5668C145.773 14.9503 145.092 15.142 144.268 15.142C143.586 15.142 142.98 14.9929 142.45 14.6946C141.919 14.3916 141.503 13.937 141.2 13.331C140.897 12.7202 140.745 11.9508 140.745 11.0227V4.09091H142.421V10.9091C142.421 11.7045 142.644 12.339 143.089 12.8125C143.539 13.286 144.112 13.5227 144.808 13.5227C145.224 13.5227 145.648 13.4162 146.079 13.2031C146.514 12.9901 146.879 12.6634 147.173 12.223C147.471 11.7827 147.62 11.2216 147.62 10.5398ZM160.093 6.53409L158.588 6.96023C158.493 6.70928 158.353 6.46544 158.169 6.22869C157.989 5.98722 157.743 5.78835 157.43 5.6321C157.118 5.47585 156.717 5.39773 156.23 5.39773C155.562 5.39773 155.006 5.55161 154.561 5.85938C154.12 6.16241 153.9 6.5483 153.9 7.01705C153.9 7.43371 154.052 7.76278 154.355 8.00426C154.658 8.24574 155.131 8.44697 155.775 8.60795L157.395 9.00568C158.37 9.24242 159.097 9.60464 159.575 10.0923C160.053 10.5753 160.292 11.1979 160.292 11.9602C160.292 12.5852 160.112 13.1439 159.752 13.6364C159.397 14.1288 158.9 14.517 158.261 14.8011C157.622 15.0852 156.878 15.2273 156.031 15.2273C154.918 15.2273 153.997 14.9858 153.268 14.5028C152.539 14.0199 152.077 13.3144 151.883 12.3864L153.474 11.9886C153.626 12.5758 153.912 13.0161 154.333 13.3097C154.76 13.6032 155.316 13.75 156.002 13.75C156.784 13.75 157.404 13.5843 157.863 13.2528C158.327 12.9167 158.559 12.5142 158.559 12.0455C158.559 11.6667 158.427 11.3494 158.162 11.0938C157.896 10.8333 157.489 10.6392 156.94 10.5114L155.122 10.0852C154.123 9.84848 153.389 9.48153 152.92 8.98438C152.456 8.48248 152.224 7.85511 152.224 7.10227C152.224 6.48674 152.397 5.94223 152.743 5.46875C153.093 4.99527 153.569 4.62358 154.17 4.35369C154.776 4.08381 155.463 3.94886 156.23 3.94886C157.309 3.94886 158.157 4.18561 158.772 4.65909C159.393 5.13258 159.833 5.75758 160.093 6.53409ZM167.56 4.09091V5.51136H161.906V4.09091H167.56ZM163.554 1.47727H165.23V11.875C165.23 12.3485 165.299 12.7036 165.436 12.9403C165.578 13.1723 165.758 13.3286 165.976 13.4091C166.198 13.4848 166.433 13.5227 166.679 13.5227C166.864 13.5227 167.015 13.5133 167.134 13.4943C167.252 13.4706 167.347 13.4517 167.418 13.4375L167.759 14.9432C167.645 14.9858 167.486 15.0284 167.283 15.071C167.079 15.1184 166.821 15.142 166.509 15.142C166.035 15.142 165.571 15.0402 165.116 14.8366C164.667 14.633 164.293 14.3229 163.994 13.9062C163.701 13.4896 163.554 12.964 163.554 12.3295V1.47727ZM175.678 15V13.7216L180.479 8.46591C181.042 7.85038 181.506 7.31534 181.871 6.8608C182.235 6.40152 182.505 5.97064 182.68 5.56818C182.86 5.16098 182.95 4.73485 182.95 4.28977C182.95 3.77841 182.827 3.3357 182.581 2.96165C182.339 2.58759 182.008 2.29877 181.587 2.09517C181.165 1.89157 180.692 1.78977 180.166 1.78977C179.607 1.78977 179.12 1.90578 178.703 2.13778C178.291 2.36506 177.972 2.68466 177.744 3.09659C177.522 3.50852 177.411 3.99148 177.411 4.54545H175.734C175.734 3.69318 175.931 2.94508 176.324 2.30114C176.717 1.6572 177.252 1.1553 177.929 0.795454C178.611 0.435605 179.375 0.255681 180.223 0.255681C181.075 0.255681 181.83 0.435605 182.489 0.795454C183.147 1.1553 183.663 1.64062 184.037 2.25142C184.411 2.86222 184.598 3.54167 184.598 4.28977C184.598 4.82481 184.501 5.34801 184.307 5.85938C184.117 6.366 183.786 6.93182 183.312 7.55682C182.844 8.17708 182.193 8.93466 181.359 9.82955L178.092 13.3239V13.4375H184.854V15H175.678ZM192.531 15.1989C191.461 15.1989 190.55 14.9077 189.797 14.3253C189.044 13.7382 188.469 12.8883 188.071 11.7756C187.673 10.6581 187.474 9.30871 187.474 7.72727C187.474 6.1553 187.673 4.81297 188.071 3.70028C188.473 2.58286 189.051 1.73059 189.804 1.14347C190.562 0.551609 191.471 0.255681 192.531 0.255681C193.592 0.255681 194.499 0.551609 195.251 1.14347C196.009 1.73059 196.587 2.58286 196.984 3.70028C197.387 4.81297 197.588 6.1553 197.588 7.72727C197.588 9.30871 197.389 10.6581 196.991 11.7756C196.594 12.8883 196.018 13.7382 195.266 14.3253C194.513 14.9077 193.601 15.1989 192.531 15.1989ZM192.531 13.6364C193.592 13.6364 194.416 13.125 195.003 12.1023C195.59 11.0795 195.884 9.62121 195.884 7.72727C195.884 6.4678 195.749 5.39536 195.479 4.50994C195.214 3.62453 194.83 2.94981 194.328 2.4858C193.831 2.02178 193.232 1.78977 192.531 1.78977C191.48 1.78977 190.659 2.30824 190.067 3.34517C189.475 4.37737 189.179 5.83807 189.179 7.72727C189.179 8.98674 189.312 10.0568 189.577 10.9375C189.842 11.8182 190.223 12.4882 190.72 12.9474C191.222 13.4067 191.826 13.6364 192.531 13.6364ZM200.287 15V13.7216L205.088 8.46591C205.652 7.85038 206.116 7.31534 206.48 6.8608C206.845 6.40152 207.115 5.97064 207.29 5.56818C207.47 5.16098 207.56 4.73485 207.56 4.28977C207.56 3.77841 207.437 3.3357 207.19 2.96165C206.949 2.58759 206.617 2.29877 206.196 2.09517C205.775 1.89157 205.301 1.78977 204.776 1.78977C204.217 1.78977 203.729 1.90578 203.312 2.13778C202.901 2.36506 202.581 2.68466 202.354 3.09659C202.131 3.50852 202.02 3.99148 202.02 4.54545H200.344C200.344 3.69318 200.54 2.94508 200.933 2.30114C201.326 1.6572 201.861 1.1553 202.538 0.795454C203.22 0.435605 203.985 0.255681 204.832 0.255681C205.685 0.255681 206.44 0.435605 207.098 0.795454C207.756 1.1553 208.272 1.64062 208.646 2.25142C209.02 2.86222 209.207 3.54167 209.207 4.28977C209.207 4.82481 209.11 5.34801 208.916 5.85938C208.727 6.366 208.395 6.93182 207.922 7.55682C207.453 8.17708 206.802 8.93466 205.969 9.82955L202.702 13.3239V13.4375H209.463V15H200.287ZM212.396 15V13.7216L217.197 8.46591C217.761 7.85038 218.225 7.31534 218.589 6.8608C218.954 6.40152 219.224 5.97064 219.399 5.56818C219.579 5.16098 219.669 4.73485 219.669 4.28977C219.669 3.77841 219.546 3.3357 219.3 2.96165C219.058 2.58759 218.727 2.29877 218.305 2.09517C217.884 1.89157 217.411 1.78977 216.885 1.78977C216.326 1.78977 215.839 1.90578 215.422 2.13778C215.01 2.36506 214.69 2.68466 214.463 3.09659C214.241 3.50852 214.129 3.99148 214.129 4.54545H212.453C212.453 3.69318 212.65 2.94508 213.043 2.30114C213.436 1.6572 213.971 1.1553 214.648 0.795454C215.33 0.435605 216.094 0.255681 216.942 0.255681C217.794 0.255681 218.549 0.435605 219.207 0.795454C219.866 1.1553 220.382 1.64062 220.756 2.25142C221.13 2.86222 221.317 3.54167 221.317 4.28977C221.317 4.82481 221.22 5.34801 221.026 5.85938C220.836 6.366 220.505 6.93182 220.031 7.55682C219.562 8.17708 218.911 8.93466 218.078 9.82955L214.811 13.3239V13.4375H221.572V15H212.396Z" fill="#999999"/>
</svg>
